<?xml version="1.0" encoding="utf-8"?>
<!-- Generator: Adobe Illustrator 16.0.0, SVG Export Plug-In . SVG Version: 6.00 Build 0)  -->
<!DOCTYPE svg PUBLIC "-//W3C//DTD SVG 1.1//EN" "http://www.w3.org/Graphics/SVG/1.1/DTD/svg11.dtd">
<svg version="1.1" id="圖層_1" xmlns="http://www.w3.org/2000/svg" xmlns:xlink="http://www.w3.org/1999/xlink" x="0px" y="0px"
	 width="1031.123px" height="841.89px" viewBox="-222.968 0 1031.123 841.89" enable-background="new -222.968 0 1031.123 841.89"
	 xml:space="preserve">
<path fill="#FFFFFF" d="M100.506,33.341c-107.98,0-195.517,87.536-195.517,195.517V613.03c0,107.984,87.536,195.519,195.517,195.519
	H484.68c107.981,0,195.518-87.534,195.518-195.519V228.858c0-107.98-87.536-195.517-195.518-195.517H100.506z M-33.268,228.858
	c0-73.882,59.893-133.774,133.774-133.774H484.68c73.881,0,133.775,59.893,133.775,133.774V613.03
	c0,73.883-59.895,133.775-133.775,133.775H100.506c-73.882,0-133.774-59.893-133.774-133.775V228.858z M145.098,420.944
	c0-81.458,66.036-147.494,147.495-147.494c81.46,0,147.496,66.036,147.496,147.494c0,81.46-66.036,147.495-147.496,147.495
	C211.134,568.439,145.098,502.404,145.098,420.944z M292.593,211.708c-115.559,0-209.238,93.679-209.238,209.236
	c0,115.56,93.68,209.237,209.238,209.237c115.561,0,209.238-93.678,209.238-209.237
	C501.832,305.386,408.154,211.708,292.593,211.708z M512.122,242.579c22.731,0,41.162-18.428,41.162-41.161
	s-18.431-41.161-41.162-41.161c-22.734,0-41.16,18.428-41.16,41.161S489.387,242.579,512.122,242.579z"/>
</svg>
