<?xml version="1.0" encoding="utf-8"?>
<!-- Generator: Adobe Illustrator 16.0.0, SVG Export Plug-In . SVG Version: 6.00 Build 0)  -->
<!DOCTYPE svg PUBLIC "-//W3C//DTD SVG 1.1//EN" "http://www.w3.org/Graphics/SVG/1.1/DTD/svg11.dtd">
<svg version="1.1" id="圖層_1" xmlns="http://www.w3.org/2000/svg" xmlns:xlink="http://www.w3.org/1999/xlink" x="0px" y="0px"
	 width="1023.277px" height="1023.276px" viewBox="0 0 1023.277 1023.276" enable-background="new 0 0 1023.277 1023.276"
	 xml:space="preserve"  fill="#16bae4">
<path fill="#FFFFFF" d="M258.082,0C115.55,0,0,115.548,0,258.083v507.108c0,142.538,115.547,258.085,258.082,258.085h507.11
	c142.535,0,258.085-115.545,258.085-258.085V258.083C1023.277,115.549,907.729,0,765.192,0H258.082z M81.501,258.083
	c0-97.524,79.06-176.581,176.581-176.581h507.11c97.522,0,176.583,79.058,176.583,176.581v507.108
	c0,97.526-79.062,176.581-176.583,176.581h-507.11c-97.523,0-176.581-79.058-176.581-176.581V258.083z M316.944,511.636
	c0-107.524,87.167-194.691,194.693-194.691s194.695,87.167,194.695,194.691c0,107.528-87.169,194.695-194.695,194.695
	S316.944,619.164,316.944,511.636z M511.638,235.445c-152.537,0-276.194,123.656-276.194,276.19
	c0,152.54,123.658,276.194,276.194,276.194c152.54,0,276.194-123.654,276.194-276.194
	C787.833,359.1,664.178,235.445,511.638,235.445z M801.416,276.194c30.004,0,54.334-24.324,54.334-54.333
	c0-30.007-24.33-54.332-54.334-54.332c-30.009,0-54.331,24.325-54.331,54.332C747.085,251.87,771.406,276.194,801.416,276.194z"/>
</svg>
