<?xml version="1.0" encoding="UTF-8" standalone="no"?> <svg width="512" height="512" viewBox="0 0 512 512" fill="none" xmlns="http://www.w3.org/2000/svg">
<path fill-rule="evenodd" clip-rule="evenodd" d="M144 30C81.0395 30 30 81.0395 30 144V368C30 430.96 81.0395 482 144 482H368C430.96 482 482 430.96 482 368V144C482 81.0395 430.96 30 368 30H144ZM66 144C66 100.922 100.922 66 144 66H368C411.078 66 446 100.922 446 144V368C446 411.078 411.078 446 368 446H144C100.922 446 66 411.078 66 368V144ZM170 256C170 208.504 208.504 170 256 170C303.496 170 342 208.504 342 256C342 303.496 303.496 342 256 342C208.504 342 170 303.496 170 256ZM256 134C188.621 134 134 188.621 134 256C134 323.379 188.621 378 256 378C323.379 378 378 323.379 378 256C378 188.621 323.379 134 256 134ZM384 152C397.255 152 408 141.255 408 128C408 114.745 397.255 104 384 104C370.745 104 360 114.745 360 128C360 141.255 370.745 152 384 152Z" fill="black"/>
</svg>
