<?xml version="1.0" encoding="utf-8"?>
<!-- Generator: Adobe Illustrator 16.0.0, SVG Export Plug-In . SVG Version: 6.00 Build 0)  -->
<!DOCTYPE svg PUBLIC "-//W3C//DTD SVG 1.1//EN" "http://www.w3.org/Graphics/SVG/1.1/DTD/svg11.dtd">
<svg version="1.1" id="圖層_1" xmlns="http://www.w3.org/2000/svg" xmlns:xlink="http://www.w3.org/1999/xlink" x="0px" y="0px"
	 width="1031.123px" height="841.89px" viewBox="-222.968 0 1031.123 841.89" enable-background="new -222.968 0 1031.123 841.89"
	 xml:space="preserve">
<path fill="#FFFFFF" d="M733.398,148.038c-32.449,14.412-67.302,24.105-103.891,28.48c37.369-22.379,66.027-57.809,79.52-100.057
	c-34.934,20.717-73.66,35.77-114.881,43.908c-33-35.163-79.986-57.132-132.004-57.132c-99.881,0-180.854,81.002-180.854,180.859
	c0,14.172,1.627,28.005,4.677,41.195C135.654,277.763,2.405,205.748-86.841,96.296c-15.53,26.717-24.445,57.777-24.445,90.972
	c0,62.727,31.908,118.099,80.425,150.511c-29.631-0.947-57.541-9.085-81.92-22.616c0,0.782,0,1.493,0,2.272
	c0,87.653,62.322,160.744,145.091,177.332c-15.158,4.14-31.159,6.344-47.673,6.344c-11.631,0-22.989-1.161-34.011-3.23
	c23.024,71.854,89.82,124.172,168.958,125.629c-61.877,48.525-139.865,77.449-224.633,77.449c-14.578,0-28.989-0.845-43.162-2.55
	c80.052,51.306,175.093,81.241,277.258,81.241c332.699,0,514.57-275.594,514.57-514.602c0-7.831-0.168-15.629-0.516-23.394
	C678.464,216.125,709.162,184.283,733.398,148.038z"/>
</svg>
